<?xml version="1.0" encoding="utf-8"?>
<!-- Generator: Adobe Illustrator 25.0.0, SVG Export Plug-In . SVG Version: 6.00 Build 0)  -->
<svg fill="none" viewBox="0 0 165 44" xmlns="http://www.w3.org/2000/svg"><path d="m46.0422 10.1779v14.3442h.0599l6.1689-7.4566h3.4737l-5.7796 6.7678 6.678 8.2053h-3.5636l-4.8513-6.139-2.186 2.5754v3.5636h-2.9048v-21.8607zm12.7046 20.004v-13.1164h2.9048v12.5175h6.9175v-12.5175h2.9048v15.1228h-2.1861l-.7187-1.2278-2.1261 1.2278h-4.2224zm25.2734-10.5111h-5.4502v12.3678h-2.9048v-14.9731h2.1861l.7187 1.2278 2.1261-1.2278h3.3241zm4.9911 6.2288v3.6834h6.0192v-3.6834zm.569 6.2887-3.4737-2.0064v-4.8812l3.4737-2.0064h5.4502v-3.6235h-7.4266v-2.6053h6.8576l3.4738 2.0064v13.1164h-.7786l-2.1262-1.2278-2.1262 1.2278zm22.3077-.1497-3.474-2.0064v-19.8543h2.905v19.2554h3.593v2.6053zm8.187-6.139v3.6834h6.019v-3.6834zm.569 6.2887-3.474-2.0064v-4.8812l3.474-2.0064h5.45v-3.6235h-7.427v-2.6053h6.858l3.474 2.0064v13.1164h-.779l-2.126-1.2278-2.126 1.2278zm17.732-15.2725h4.522l3.474 2.0064v11.2597l-3.474 2.0064h-4.522l-2.126-1.2278-2.126 1.2278h-.779v-22.0104h2.905v7.9657zm-2.126 2.6053v10.0619h7.217v-10.0619zm25.566 5.6299v4.8812l-3.474 2.0064h-7.786v-2.6053h8.355v-3.6834h-4.881l-3.474-2.0064v-4.6716l3.474-2.0064h7.486v2.6053h-8.055v3.4738h4.881z" fill="#1f0202"></path><g clip-rule="evenodd" fill="#f14c36" fill-rule="evenodd" stroke="#f14c36" stroke-width="1.28546"><path d="m5.38722 3.96338 6.88078 6.99742.0076 20.6709h-5.37902v7.5574h-1.72324v-9.3099h5.37906l-.0076-18.1925-6.3761-6.48416z"></path><path d="m15.1655 7.93896 8.4848.00007v1.75245h-6.8271l-.0643 20.18902h5.1955l-.0001 7.032h-1.7232v-5.2796h-5.1298z"></path><path d="m4.26646 9.55912 3.48389 3.52978v13.9982h-5.27595v6.1377h-1.72324v-7.8902h5.27595v-11.5198l-2.97918-3.0165z"></path><path d="m30.479 9.15378-4.9699 5.07702h-4.1561l-.0001 10.8353h5.1656v7.6521h-1.7232v-5.8996h-5.1656v-14.3403h5.1656l4.4652-4.56369z"></path></g></svg>